<svg width="20.000000" height="20.000000" viewBox="0 0 20 20" fill="none" xmlns="http://www.w3.org/2000/svg" xmlns:xlink="http://www.w3.org/1999/xlink">
	<desc>
			Created with Pixso.
	</desc>
	<defs/>
	<path d="M13.5323 12.3836L12.9299 12.3836L12.7164 12.1778C13.6314 11.1109 14.1042 9.65527 13.845 8.10818C13.4866 5.98956 11.7175 4.2977 9.58234 4.03857C6.35675 3.6423 3.64209 6.35538 4.0386 9.57904C4.29788 11.7129 5.99072 13.481 8.1106 13.8392C9.65857 14.0983 11.1151 13.6258 12.1826 12.7113L12.3885 12.9247L12.3885 13.5267L15.6293 16.7657C15.942 17.0781 16.4529 17.0781 16.7655 16.7657C17.0782 16.4532 17.0782 15.9426 16.7655 15.6301L13.5323 12.3836ZM8.95703 12.3836C7.05829 12.3836 5.52557 10.8517 5.52557 8.95413C5.52557 7.05649 7.05829 5.52469 8.95703 5.52469C10.8558 5.52469 12.3885 7.05649 12.3885 8.95413C12.3885 10.8517 10.8558 12.3836 8.95703 12.3836Z" fill="#121212" fill-opacity="1.000000" fill-rule="nonzero"/>
</svg>
