<svg width="32.000000" height="32.000000" viewBox="0 0 32 32" fill="none" xmlns="http://www.w3.org/2000/svg" xmlns:xlink="http://www.w3.org/1999/xlink">
	<desc>
			Created with Pixso.
	</desc>
	<defs>
		<clipPath id="clip1_51">
			<rect width="32.000000" height="32.000000" fill="white" fill-opacity="0"/>
		</clipPath>
	</defs>
	<rect width="32.000000" height="32.000000" fill="#FFFFFF" fill-opacity="0"/>
	<g clip-path="url(#clip1_51)">
		<path d="M21.3021 19.2954L20.2487 19.2954L19.8754 18.9354C21.4754 17.0688 22.3021 14.5221 21.8488 11.8154C21.2221 8.10876 18.1288 5.14877 14.3954 4.69543C8.75542 4.00211 4.00874 8.74875 4.70209 14.3888C5.15541 18.1221 8.11542 21.2154 11.8221 21.8421C14.5287 22.2954 17.0754 21.4688 18.9421 19.8688L19.3021 20.2421L19.3021 21.2954L24.9688 26.9621C25.5154 27.5088 26.4088 27.5088 26.9554 26.9621C27.5021 26.4154 27.5021 25.5221 26.9554 24.9754L21.3021 19.2954ZM13.3021 19.2954C9.98209 19.2954 7.30208 16.6154 7.30208 13.2954C7.30208 9.97543 9.98209 7.29544 13.3021 7.29544C16.6221 7.29544 19.3021 9.97543 19.3021 13.2954C19.3021 16.6154 16.6221 19.2954 13.3021 19.2954Z" fill="#FAFAFA" fill-opacity="1.000000" fill-rule="nonzero"/>
	</g>
</svg>
