<svg width="40.000000" height="40.000000" viewBox="0 0 40 40" fill="none" xmlns="http://www.w3.org/2000/svg" xmlns:xlink="http://www.w3.org/1999/xlink">
	<desc>
			Created with Pixso.
	</desc>
	<defs/>
	<path d="M40 20C40 31.0457 31.0457 40 20 40C8.95428 40 0 31.0457 0 20C0 8.95432 8.95428 0 20 0C31.0457 0 40 8.95432 40 20Z" fill="#121212" fill-opacity="1.000000" fill-rule="evenodd"/>
	<path d="M12.7099 7.31296L19.8193 7.31296Q24.3818 7.31296 26.7255 8.59421Q29.0693 9.87546 29.0693 13.0942Q29.0693 14.3911 28.6552 15.438Q28.2411 16.4848 27.4599 17.1567Q26.6786 17.8286 25.5536 18.0317L25.5536 18.188Q26.6943 18.4223 27.6161 18.9926Q28.538 19.563 29.0927 20.6489Q29.6474 21.7348 29.6474 23.5317Q29.6474 25.6098 28.6318 27.0942Q27.6161 28.5786 25.7333 29.3676Q23.8505 30.1567 21.2568 30.1567L12.7099 30.1567L12.7099 7.31296ZM17.5536 16.3598L20.3661 16.3598Q22.4755 16.3598 23.288 15.6958Q24.1005 15.0317 24.1005 13.7348Q24.1005 12.4223 23.1396 11.852Q22.1786 11.2817 20.1005 11.2817L17.5536 11.2817L17.5536 16.3598ZM17.5536 20.2036L17.5536 26.1567L20.7099 26.1567Q22.8974 26.1567 23.7568 25.313Q24.6161 24.4692 24.6161 23.0473Q24.6161 22.2036 24.2411 21.563Q23.8661 20.9223 22.9833 20.563Q22.1005 20.2036 20.5536 20.2036L17.5536 20.2036Z" fill="#FFFFFF" fill-opacity="1.000000" fill-rule="evenodd"/>
</svg>
